<?xml version="1.0" encoding="UTF-8"?>
<svg id="Layer_1" xmlns="http://www.w3.org/2000/svg" version="1.1" viewBox="0 0 512 512">
  <!-- Generator: Adobe Illustrator 29.3.1, SVG Export Plug-In . SVG Version: 2.1.0 Build 151)  -->
  <defs>
    <style>
      .st0 {
        fill: #4193d2;
      }

      .st1 {
        fill: #48a4df;
      }
    </style>
  </defs>
  <g id="Layer_6">
    <path class="st0" d="M114.9,107.7l148.3,148.3-148.3,148.3c-24,24.5-24,63.8,0,88.3,24.4,24.9,64.3,25.3,89.2.9l192.9-192.9c24.6-24.6,24.6-64.6,0-89.2L204.1,18.5c-24.6-24.6-64.6-24.6-89.2,0-24.6,24.6-24.6,64.6,0,89.2Z"/>
    <path class="st1" d="M204.1,18.4C187.4,1.7,162.8-4.2,140.3,3c-15.5,32.4-24.5,67.5-26.5,103.4.4.4.8.8,1.2,1.3l148.3,148.3-65.9,65.9c31.5,30.7,69.8,53.5,111.8,66.6l87.9-87.9c24.6-24.6,24.6-64.6,0-89.2L204.1,18.4Z"/>
  </g>
</svg>