<svg viewBox="0 0 512 512" xmlns="http://www.w3.org/2000/svg"><g id="Layer_6" data-name="Layer 6"><path d="m397.06 18.47a63.07 63.07 0 0 0 -89.19 0l-192.93 192.93a63.07 63.07 0 0 0 0 89.19l192.93 192.94a63.07 63.07 0 0 0 89.19-89.19l-148.34-148.34 148.34-148.34a63.07 63.07 0 0 0 0-89.19z" fill="#4193d2"/><path d="m114.94 211.4a63.07 63.07 0 0 0 0 89.19l87.86 87.87a277.92 277.92 0 0 0 111.83-66.55l-65.91-65.91 148.34-148.34c.41-.41.8-.84 1.2-1.26a276.74 276.74 0 0 0 -26.53-103.4 63 63 0 0 0 -63.86 15.45z" fill="#48a4df"/></g></svg>